<svg xmlns="http://www.w3.org/2000/svg" width="180" height="180" viewBox="0 0 24 24" fill="none">
  <defs>
    <linearGradient id="fenix-apple" x1="0%" y1="100%" x2="100%" y2="0%">
      <stop offset="0%" stop-color="#ea580c"/>
      <stop offset="50%" stop-color="#f97316"/>
      <stop offset="100%" stop-color="#ffffff"/>
    </linearGradient>
  </defs>
  <rect width="24" height="24" rx="4" fill="#020817"/>
  <path 
    d="M8.5 14.5A2.5 2.5 0 0 0 11 12c0-1.38-.5-2-1-3-1.072-2.143-.224-4.054 2-6 .5 2.5 2 4.9 4 6.5 2 1.6 3 3.5 3 5.5a7 7 0 1 1-14 0c0-1.1.2-2.2.5-3.3a9 9 0 0 0 .9 2.8Z" 
    fill="url(#fenix-apple)"
  />
</svg>
